<svg xmlns="http://www.w3.org/2000/svg" viewBox="0 0 200 200"><defs><style>.cls-1{fill:#94b8ff;}.cls-2{fill:#fff;}</style></defs><title>Asset 9</title><g id="Layer_2" data-name="Layer 2"><g id="Layer_1-2" data-name="Layer 1"><circle class="cls-1" cx="100" cy="100" r="100"/><path class="cls-2" d="M45.24,155.33l-22.56-6s-.27-30.68,12.13-50.44c6.51-10.37,26.35-24.76,26.35-24.76L85.09,95.82s-25.52,15.1-31.22,23.32C48.42,127,45.24,155.33,45.24,155.33Z"/><path class="cls-2" d="M136.77,73.55l-19.29-3.78c-.29,7.64-8.58,14.67-18.71,14.67S80.59,79.13,80.38,69.77L61.16,74.16s3,37.91,1.87,51.08c-.93,11.18-.83,37.61-.83,37.61s11.35,11.75,44.94,11.26c25.57-.37,28.77-16.08,28.77-16.08s-.2-21.76-.93-33.13C134.14,111.92,136.77,73.55,136.77,73.55Z"/><path class="cls-2" d="M153.5,155.33l23.41-5.88s-.59-30.77-13-50.53c-6.51-10.37-27.16-25.37-27.16-25.37L113.65,95.82s24.84,15.82,30.55,24C149.64,127.71,153.5,155.33,153.5,155.33Z"/><path class="cls-2" d="M124.09,55.71c0,3.19.59,11.13,0,14.06-3,14.8-13.81,20.82-25.63,20.82-11.37,0-22.28-6.89-25.64-20.82-.82-3.43,0-10.26,0-14.06,0-19.26,11.48-34.87,25.64-34.87S124.09,36.45,124.09,55.71Z"/><path class="cls-1" d="M114.94,52.2c0,13.64-8.75,21.7-16.12,21.7S81.43,68.84,81.43,55.2s8.65-22.07,16-22.07S114.94,38.56,114.94,52.2Z"/><path class="cls-1" d="M97.45,80.52S88,73.73,85.7,70.21c-1.34-2.1-3.43-8.68-3.43-8.68L98.8,65.66l13.82-2.25s-2.32,5.37-3.32,7C107,74.26,97.45,80.52,97.45,80.52Z"/></g></g></svg>