<svg xmlns="http://www.w3.org/2000/svg" viewBox="0 0 200 200"><defs><style>.cls-1{fill:#95e1d3;}.cls-2{fill:#fff;}</style></defs><title>Asset 8</title><g id="Layer_2" data-name="Layer 2"><g id="Layer_1-2" data-name="Layer 1"><circle class="cls-1" cx="100" cy="100" r="100"/><path class="cls-2" d="M39.73,135.24l-15.36-2.83s2.58-32.59,14.68-54c6.36-11.23,25.89-27.84,25.89-27.84L85.32,72S62,84.22,56.43,93.12C51.11,101.63,39.73,135.24,39.73,135.24Z"/><path class="cls-2" d="M134.1,50.58l-17.16-6.79c-.28,8.28-8.38,15.9-18.27,15.9s-17.75-5.76-17.94-15.9L64.94,50.58s.78,40.39.58,55.91C65.25,126.54,60.7,149,60.7,149s13.35,8.36,46.15,7.83c25-.4,30.57-6.76,30.57-6.76s-5.08-25.66-4.28-45.71C133.72,89.84,134.1,50.58,134.1,50.58Z"/><path class="cls-2" d="M159.5,135.24l15.36-2.83s-2.58-32.59-14.69-54c-6.35-11.23-26.07-27.84-26.07-27.84L113.91,72s23.32,12.2,28.89,21.1C148.12,101.63,159.5,135.24,159.5,135.24Z"/></g></g></svg>