<svg xmlns="http://www.w3.org/2000/svg" viewBox="0 0 200 200"><defs><style>.cls-1{fill:#f38181;}.cls-2{fill:#fff;}</style></defs><title>Asset 14</title><g id="Layer_2" data-name="Layer 2"><g id="Layer_1-2" data-name="Layer 1"><circle class="cls-1" cx="100" cy="100" r="100"/><path class="cls-2" d="M80.71,122.59c-5.44,3.57-19.06,5.85-25.51,5-5.56-.69-17.34-3.09-21.27-7.08-3.35-3.4-5.92-13.13-6.94-17.8-.62-2.83-1.64-8.18-2.58-13.28-.43-2.31-3.31-2.26-3.31-2.26L22.16,77.1S49,72.21,57.07,72.21c15.43,0,37.21,5,37.21,5s.91,15.24-2.41,26.4C90.3,108.92,85.3,119.58,80.71,122.59Z"/><path class="cls-2" d="M119.29,122.59c5.44,3.57,19.06,5.85,25.51,5,5.56-.69,17.34-3.09,21.27-7.08,3.35-3.4,5.92-13.13,6.94-17.8.62-2.83,1.64-8.18,2.58-13.28.43-2.31,3.31-2.26,3.31-2.26L177.84,77.1s-26.79-4.89-34.91-4.89c-15.43,0-37.21,5-37.21,5s-.91,15.24,2.41,26.4C109.7,108.92,114.7,119.58,119.29,122.59Z"/><path class="cls-2" d="M110.29,90s-7.4-3.45-10.29-3.42S90.2,90,90.2,90V77.26h19.6Z"/></g></g></svg>