<svg xmlns="http://www.w3.org/2000/svg" viewBox="0 0 200 200"><defs><style>.cls-1{fill:#fce38a;}.cls-2{fill:#fff;}</style></defs><title>Asset 6</title><g id="Layer_2" data-name="Layer 2"><g id="Layer_1-2" data-name="Layer 1"><circle class="cls-1" cx="100" cy="100" r="100"/><path class="cls-2" d="M133.53,90.49a68.69,68.69,0,0,1-1.31-13.41,64.78,64.78,0,0,1,5.51-26.63C139,43.94,140,39.66,140,39.66l-17.42-5.18c.33,2,.92,4.16.51,6.29-3.26,16.9-9.77,24-23.06,24s-22.53-7.39-25-24a13,13,0,0,1,.34-5.09L60,41.41s.55,3.55,1.27,8.68a65.35,65.35,0,0,1,4.82,25A68.06,68.06,0,0,1,64.64,89.3c-.51,7.08-1.69,16.36-1.87,21.62-.48,14-2.13,42.86-2.13,42.86s24.58,5,39.36,4.06c18.84-1.21,40-9.64,40-9.64s-4.38-22.56-4.52-36.25C135.4,106.74,133.94,99.19,133.53,90.49Z"/></g></g></svg>