<svg xmlns="http://www.w3.org/2000/svg" viewBox="0 0 200 200"><defs><style>.cls-1{fill:#496591;}.cls-2{fill:#fff;}</style></defs><title>Asset 3</title><g id="Layer_2" data-name="Layer 2"><g id="Layer_1-2" data-name="Layer 1"><circle class="cls-1" cx="100" cy="100" r="100"/><path class="cls-2" d="M127.59,86.72l21.82-3.52A55.29,55.29,0,0,0,86.13,37.38C107.69,44.19,123.74,62.85,127.59,86.72ZM85.9,37.42a55.29,55.29,0,0,0-45.65,63.41L62.07,97.3C58.21,73.43,67.57,50.67,85.9,37.42Zm.15,0H86C74.66,49.52,69.15,71.62,73,95.54l43.7-7.06C112.83,64.61,100.6,45.33,86.05,37.39Z"/><path class="cls-2" d="M121.19,148.48a11.44,11.44,0,0,0,9.53-13.07l11.48-2c2.16,12.2-6.37,23.91-19.06,26.15s-24.83-6.73-27-18.92l11.49-1.86C108.72,144.84,114.84,149.6,121.19,148.48Z"/><rect class="cls-2" x="92.6" y="96.31" width="11.64" height="43.64" transform="translate(-17.57 17.2) rotate(-9.17)"/></g></g></svg>