<?xml version="1.0" encoding="utf-8"?>
<!-- Generator: Adobe Illustrator 23.0.1, SVG Export Plug-In . SVG Version: 6.00 Build 0)  -->
<svg version="1.1" id="Layer_1" xmlns="http://www.w3.org/2000/svg" xmlns:xlink="http://www.w3.org/1999/xlink" x="0px" y="0px"
	 viewBox="0 0 151 151" style="enable-background:new 0 0 151 151;" xml:space="preserve">
<style type="text/css">
	.st0{fill:#F38181;}
	.st1{fill:#FFFFFF;}
</style>
<title>Asset 1</title>
<g>
	<g id="Layer_1-2">
		<circle class="st0" cx="75.5" cy="75.5" r="75.5"/>
		<path class="st1" d="M80.6,29c0,0,3.4,11.9,3.4,21.6c0,9.3-6,16.8-15.3,16.8s-16.3-7.5-16.4-16.8l0.1-1.6
			c-9.4,11.2-14.5,25.4-14.5,40c0.1,19.9,16.2,36,36.1,35.9s36-16.2,35.9-36.1C109.8,65.5,99,43.5,80.6,29z M72.8,111.5
			c-7.9,0.1-14.4-6.2-14.5-14.1c0,0,0,0,0,0c0-7.3,4.7-12.4,12.6-14.1s16.2-5.5,20.8-11.7c1.8,5.9,2.7,12,2.7,18.2
			C94.4,101.8,84.7,111.5,72.8,111.5z"/>
	</g>
</g>
</svg>
