<svg xmlns="http://www.w3.org/2000/svg" viewBox="0 0 145.57 146.82"><defs><style>.cls-1{fill:#fce38a;}</style></defs><title>Sun</title><g id="Layer_2" data-name="Layer 2"><g id="Layer_1-2" data-name="Layer 1"><path class="cls-1" d="M38.11,28.76l-11.91-12-9.33,9.45,11.85,12ZM19.85,66.71H0V80.12H19.85ZM79.4,0H66.17V19.78H79.4Zm49.3,26.21-9.33-9.45-11.84,12,9.33,9.45Zm-21.24,91.85,11.84,12.07,9.33-9.45-11.91-12Zm18.26-51.35V80.12h19.85V66.71ZM72.79,33.19c-21.91,0-39.71,18-39.71,40.22s17.8,40.23,39.71,40.23,39.7-18,39.7-40.23S94.69,33.19,72.79,33.19ZM66.17,146.82H79.4V127.05H66.17Zm-49.3-26.21,9.33,9.45L38.05,118l-9.33-9.45Z"/></g></g></svg>