<svg xmlns="http://www.w3.org/2000/svg" viewBox="0 0 151 151"><defs><style>.cls-1{fill:#fce38a;}.cls-2{fill:#fff;}</style></defs><title>Toastylogo</title><g id="Layer_2" data-name="Layer 2"><g id="Layer_1-2" data-name="Layer 1"><circle class="cls-1" cx="75.5" cy="75.5" r="75.5"/><path class="cls-2" d="M53.79,47.16l-7.44-7.5-5.84,5.91,7.41,7.51ZM42.37,70.9H30v8.38H42.37ZM79.62,29.18H71.34V41.55h8.28Zm30.83,16.39-5.84-5.91-7.4,7.5L103,53.08ZM97.16,103l7.41,7.55,5.84-5.91L103,97.14ZM108.59,70.9v8.38H121V70.9Zm-33.11-21a25.16,25.16,0,1,0,24.83,25.16A25,25,0,0,0,75.48,49.93ZM71.34,121h8.28V108.63H71.34ZM40.51,104.61l5.84,5.91,7.4-7.55-5.83-5.91Z"/></g></g></svg>