<svg xmlns="http://www.w3.org/2000/svg" viewBox="0 0 151 153.2"><defs><style>.cls-1{fill:#bfbfbf;}.cls-2{fill:#fff;}</style></defs><title>CloudwithSnow</title><g id="Layer_2" data-name="Layer 2"><g id="Layer_1-2" data-name="Layer 1"><path class="cls-1" d="M121.74,38A47.14,47.14,0,0,0,33.66,25.42a37.74,37.74,0,0,0,4.09,75.25h81.79A31.37,31.37,0,0,0,121.74,38Z"/><path class="cls-2" d="M69.33,90.24h-7.7l6-6.32L65,81.14l-8.6,9.1H52.72v-3.9l8.6-9.1L58.7,74.48l-6,6.33V72.67H49v8.14l-6-6.33-2.62,2.76,8.6,9.1v3.9H45.34l-8.6-9.1-2.61,2.78,6,6.32H32.42v3.91h7.69l-6,6.33,2.61,2.77,8.6-9.1H49v3.9l-8.6,9.11,2.62,2.75,6-6.33v8.14h3.69v-8.14l6,6.33,2.62-2.75-8.6-9.11v-3.9h3.69l8.6,9.1,2.6-2.77-6-6.33h7.7Z"/><path class="cls-2" d="M125.67,107.5h-6.93l5.38-5.7-2.34-2.5L114,107.5h-3.32V104l7.74-8.2-2.36-2.48L110.71,99V91.67h-3.33V99L102,93.3l-2.36,2.48,7.75,8.2v3.52h-3.32l-7.75-8.2L94,101.8l5.39,5.7H92.42V111h6.93L94,116.72l2.35,2.5,7.75-8.2h3.32v3.52l-7.75,8.2,2.36,2.48,5.39-5.7v7.33h3.33v-7.33l5.38,5.7,2.36-2.48-7.74-8.2V111H114l7.75,8.2,2.34-2.5-5.38-5.7h6.93Z"/><path class="cls-2" d="M80,137.15H74.25l4.47-4.73-2-2.07-6.42,6.8H67.59v-2.92l6.42-6.8-2-2.06-4.47,4.73V124H64.83v6.08l-4.47-4.73-2,2.06,6.43,6.8v2.92H62.07l-6.43-6.8-1.94,2.07,4.47,4.73H52.42v2.92h5.75L53.7,144.8l1.94,2.07,6.43-6.8h2.76V143l-6.43,6.8,2,2.05,4.47-4.72v6.08h2.76v-6.08l4.47,4.72,2-2.05L67.59,143v-2.92h2.76l6.42,6.8,2-2.07-4.47-4.73H80Z"/></g></g></svg>