<?xml version="1.0" encoding="utf-8"?>
<!-- Generator: Adobe Illustrator 23.0.1, SVG Export Plug-In . SVG Version: 6.00 Build 0)  -->
<svg version="1.1" id="Layer_1" xmlns="http://www.w3.org/2000/svg" xmlns:xlink="http://www.w3.org/1999/xlink" x="0px" y="0px"
	 viewBox="0 0 151 151" style="enable-background:new 0 0 151 151;" xml:space="preserve">
<style type="text/css">
	.st0{fill:#76EBAF;}
	.st1{fill:#FFFFFF;}
</style>
<title>JustRightlogo</title>
<g>
	<g id="Layer_1-2">
		<circle class="st0" cx="75.5" cy="75.5" r="75.5"/>
		<path class="st1" d="M87.9,67.1c-0.6-10.2-4.9-19.8-12.2-27c-7.3,7.2-11.7,16.8-12.6,27c4.6,2.4,8.8,5.6,12.4,9.3
			C79.1,72.7,83.3,69.6,87.9,67.1z M64.9,75.5c-0.5-0.3-1.1-0.7-1.6-1C63.8,74.8,64.3,75.1,64.9,75.5L64.9,75.5z M87.6,74.6
			c-0.5,0.3-1,0.6-1.4,0.9C86.6,75.2,87.1,74.9,87.6,74.6L87.6,74.6z M75.5,87.7c-7.8-12-21.1-19.3-35.4-19.3
			c-0.1,18.2,11.3,34.5,28.4,40.7c2.3,0.8,4.6,1.4,7,1.8c2.4-0.4,4.7-1,7-1.8c17.1-6.2,28.5-22.5,28.4-40.7
			C96.6,68.4,83.3,75.7,75.5,87.7z"/>
	</g>
</g>
</svg>
