<svg xmlns="http://www.w3.org/2000/svg" viewBox="0 0 520.95 84.12"><defs><style>.cls-1{stroke:#000;stroke-miterlimit:10;stroke-width:2px;}.cls-1,.cls-2{opacity:0.3;}</style></defs><title>Asset 10</title><g id="Layer_2" data-name="Layer 2"><g id="Layer_1-2" data-name="Layer 1"><path class="cls-1" d="M26.32,1H38.38l25,64.79H51.18L45.1,48.64H19.24L13.16,65.79H1.45Zm-4,39H42.1L32.4,12.16h-.28Z"/><path class="cls-1" d="M63.34,18.88h7.8V4.81H81.48V18.88h9.35v7.71H81.48v25a24.91,24.91,0,0,0,.14,2.81,4.72,4.72,0,0,0,.64,2,3,3,0,0,0,1.49,1.22,7.21,7.21,0,0,0,2.72.41c.73,0,1.46,0,2.18,0a10.93,10.93,0,0,0,2.18-.32v8l-3.36.37a30.64,30.64,0,0,1-3.35.18,23,23,0,0,1-6.58-.77,8.83,8.83,0,0,1-3.91-2.27,7.85,7.85,0,0,1-1.9-3.77,28.44,28.44,0,0,1-.59-5.17V26.59h-7.8Z"/><path class="cls-1" d="M98.27,18.88h9.8v6.53h.27a26.82,26.82,0,0,1,2.54-3.18,14.28,14.28,0,0,1,3-2.45,15.92,15.92,0,0,1,3.86-1.59,19.24,19.24,0,0,1,5-.59,17,17,0,0,1,7.94,1.91,10.79,10.79,0,0,1,5.22,5.9A20.77,20.77,0,0,1,142,19.69a16.43,16.43,0,0,1,8.62-2.09c5,0,8.82,1.22,11.57,3.63s4.13,6.48,4.13,12.16v32.4H156V38.38c0-1.87-.06-3.58-.18-5.12a10.54,10.54,0,0,0-1.05-4,5.9,5.9,0,0,0-2.58-2.58,10.18,10.18,0,0,0-4.72-.91q-5.26,0-7.62,3.27c-1.58,2.18-2.36,5.26-2.36,9.25v27.5H127.12V35.66q0-4.9-1.77-7.39c-1.17-1.67-3.34-2.5-6.48-2.5a9.39,9.39,0,0,0-3.86.82A9.57,9.57,0,0,0,111.74,29a11.88,11.88,0,0,0-2.26,3.81,14.33,14.33,0,0,0-.87,5.17V65.79H98.27Z"/><path class="cls-1" d="M249.62,50.72q.47,4.55,3.45,6.36a13.59,13.59,0,0,0,7.17,1.81,27.94,27.94,0,0,0,3.31-.23,14.58,14.58,0,0,0,3.5-.86,6.5,6.5,0,0,0,2.67-1.86,4.5,4.5,0,0,0,1-3.22,4.62,4.62,0,0,0-1.46-3.27,10.19,10.19,0,0,0-3.49-2,34.09,34.09,0,0,0-4.85-1.31q-2.73-.56-5.54-1.18a51.73,51.73,0,0,1-5.58-1.55A17.87,17.87,0,0,1,245,40.92a11.29,11.29,0,0,1-3.4-3.94A12.62,12.62,0,0,1,240.28,31a10.64,10.64,0,0,1,1.86-6.39,14.19,14.19,0,0,1,4.72-4.18,20.61,20.61,0,0,1,6.35-2.22,37.65,37.65,0,0,1,6.67-.64,30.19,30.19,0,0,1,6.94.78,18.78,18.78,0,0,1,6,2.49,14.75,14.75,0,0,1,4.44,4.49A15.68,15.68,0,0,1,279.48,32h-10.8q-.74-3.72-3.4-5a14.11,14.11,0,0,0-6.13-1.27,22,22,0,0,0-2.58.18,12.12,12.12,0,0,0-2.82.68,6,6,0,0,0-2.22,1.45,3.47,3.47,0,0,0-.91,2.5,3.92,3.92,0,0,0,1.32,3.08,10.31,10.31,0,0,0,3.45,2,34.09,34.09,0,0,0,4.85,1.31c1.82.36,3.69.76,5.63,1.18s3.72.94,5.53,1.54a18.32,18.32,0,0,1,4.86,2.45A11.32,11.32,0,0,1,281,51.81a12.62,12.62,0,0,1-1.91,7.08,15.07,15.07,0,0,1-4.94,4.72,22.67,22.67,0,0,1-6.76,2.63,34.49,34.49,0,0,1-7.35.82,32.18,32.18,0,0,1-8.21-1,19.33,19.33,0,0,1-6.54-3A14.78,14.78,0,0,1,241,57.94a16.15,16.15,0,0,1-1.68-7.22Z"/><path class="cls-1" d="M289.18,18.88H299v6.35h.19a12.73,12.73,0,0,1,6.08-5.86,20.16,20.16,0,0,1,8.43-1.77,22.46,22.46,0,0,1,9.67,2,19.08,19.08,0,0,1,6.85,5.35,23.35,23.35,0,0,1,4.08,7.94,33.51,33.51,0,0,1,1.36,9.71,34.59,34.59,0,0,1-1.22,9.16,23.94,23.94,0,0,1-3.72,7.85,18.19,18.19,0,0,1-15.29,7.49,25.81,25.81,0,0,1-4.54-.41,19.19,19.19,0,0,1-4.35-1.32A16.74,16.74,0,0,1,302.66,63a12.93,12.93,0,0,1-3-3.31h-.18V83.12H289.18Zm36.12,23.5a23.07,23.07,0,0,0-.82-6.17A16.59,16.59,0,0,0,322,30.9,12.74,12.74,0,0,0,318,27.18a11.07,11.07,0,0,0-5.63-1.41q-6.52,0-9.84,4.54t-3.31,12.07A23.78,23.78,0,0,0,300,49a14.68,14.68,0,0,0,2.58,5.22,13,13,0,0,0,4.13,3.45,11.72,11.72,0,0,0,5.58,1.27,11.53,11.53,0,0,0,6-1.45,12.78,12.78,0,0,0,4-3.77,15.3,15.3,0,0,0,2.27-5.26A27,27,0,0,0,325.3,42.38Z"/><path class="cls-1" d="M344.35,1H354.7V25.05h.18a15,15,0,0,1,5.67-5.31,16.76,16.76,0,0,1,8.39-2.14q7.71,0,12.16,4t4.45,12V65.79H375.2V36.3q-.18-5.53-2.36-8t-6.8-2.5a11.3,11.3,0,0,0-4.72.95,10.34,10.34,0,0,0-3.54,2.64,12.33,12.33,0,0,0-2.27,3.94,14.2,14.2,0,0,0-.81,4.81V65.79H344.35Z"/><path class="cls-1" d="M404.51,45a18.14,18.14,0,0,0,.77,5.26,12.91,12.91,0,0,0,2.31,4.45,11.18,11.18,0,0,0,3.91,3,12.92,12.92,0,0,0,5.62,1.13,12.45,12.45,0,0,0,7.31-2,11.5,11.5,0,0,0,4.12-5.85h9.8a19.46,19.46,0,0,1-7.62,11.84,20.65,20.65,0,0,1-6.3,3.08,25.29,25.29,0,0,1-7.31,1,24.83,24.83,0,0,1-9.8-1.82,20.19,20.19,0,0,1-7.21-5.08,21.58,21.58,0,0,1-4.45-7.8,31.66,31.66,0,0,1-1.49-10,28.25,28.25,0,0,1,1.58-9.49A24.27,24.27,0,0,1,400.29,25a21.29,21.29,0,0,1,16.56-7.4,21,21,0,0,1,9.93,2.32A21.77,21.77,0,0,1,434.09,26a24.93,24.93,0,0,1,4.22,8.76A27.07,27.07,0,0,1,439,45Zm24.13-6.81a16.55,16.55,0,0,0-1-4.72,12.45,12.45,0,0,0-2.36-3.94,11.8,11.8,0,0,0-3.63-2.73,10.76,10.76,0,0,0-4.76-1,12.55,12.55,0,0,0-5,.95,11.42,11.42,0,0,0-3.81,2.64,13,13,0,0,0-2.54,3.94,13.88,13.88,0,0,0-1,4.9Z"/><path class="cls-1" d="M446.88,18.88h9.71V28h.18a10.73,10.73,0,0,1,1.77-3.72,17.12,17.12,0,0,1,3.18-3.31,16,16,0,0,1,4.13-2.41,12.42,12.42,0,0,1,4.62-.91,21.93,21.93,0,0,1,2.5.1l1.41.18v10c-.73-.12-1.47-.23-2.23-.32a18.64,18.64,0,0,0-2.22-.14A11.81,11.81,0,0,0,465,28.45a11.24,11.24,0,0,0-4,3.08,15,15,0,0,0-2.72,5,21.6,21.6,0,0,0-1,6.89V65.79H446.88Z"/><path class="cls-1" d="M485.26,45a17.82,17.82,0,0,0,.78,5.26,12.91,12.91,0,0,0,2.31,4.45,11.24,11.24,0,0,0,3.9,3,13,13,0,0,0,5.63,1.13,12.41,12.41,0,0,0,7.3-2,11.52,11.52,0,0,0,4.13-5.85h9.8a19.55,19.55,0,0,1-2.81,6.8,19.76,19.76,0,0,1-4.81,5A20.7,20.7,0,0,1,505.18,66a25.22,25.22,0,0,1-7.3,1,24.83,24.83,0,0,1-9.8-1.82,20.23,20.23,0,0,1-7.22-5.08,21.71,21.71,0,0,1-4.44-7.8,31.66,31.66,0,0,1-1.5-10,28.26,28.26,0,0,1,1.59-9.49A24.27,24.27,0,0,1,481.05,25a21.29,21.29,0,0,1,16.55-7.4,21.06,21.06,0,0,1,9.94,2.32,21.73,21.73,0,0,1,7.3,6.12,24.59,24.59,0,0,1,4.22,8.76A26.67,26.67,0,0,1,519.74,45ZM509.4,38.2a16.9,16.9,0,0,0-1-4.72A12.64,12.64,0,0,0,506,29.54a11.8,11.8,0,0,0-3.63-2.73,10.77,10.77,0,0,0-4.77-1,12.5,12.5,0,0,0-4.94.95,11.42,11.42,0,0,0-3.81,2.64,12.78,12.78,0,0,0-2.54,3.94,13.67,13.67,0,0,0-1.05,4.9Z"/><path class="cls-2" d="M203.94,6.13a31.13,31.13,0,1,0,31.13,31.13A31.13,31.13,0,0,0,203.94,6.13ZM215.76,49H193.43a10.31,10.31,0,0,1-1.12-20.55,12.88,12.88,0,0,1,24.07,3.44A8.57,8.57,0,0,1,215.76,49Z"/></g></g></svg>