<svg xmlns="http://www.w3.org/2000/svg" viewBox="0 0 151 151"><defs><style>.cls-1{fill:#94b8ff;}.cls-2{fill:#fff;}.cls-3{fill:none;}</style></defs><title>Freezing</title><g id="Layer_2" data-name="Layer 2"><g id="Layer_1-2" data-name="Layer 1"><circle class="cls-1" cx="75.5" cy="75.5" r="75.5"/><path class="cls-2" d="M118,71H100.07L114,56.21l-6.06-6.46L87.9,71H79.3v-9.1l20-21.2-6.11-6.42L79.3,49V30H70.7V49L56.77,34.23l-6.11,6.42,20,21.2V71H62.1l-20-21.2L36,56.21,49.93,71H32v9.1H49.93L36,94.79l6.06,6.46,20-21.2h8.6v9.1l-20,21.2,6.11,6.42L70.7,102v19h8.6V102l13.93,14.74,6.11-6.42-20-21.2v-9.1h8.6l20,21.2L114,94.79,100.07,80.05H118Z"/><path class="cls-3" d="M30,30h90v90H30Z"/></g></g></svg>