<svg xmlns="http://www.w3.org/2000/svg" viewBox="0 0 151 148.05"><defs><style>.cls-1{fill:#bfbfbf;}.cls-2{fill:#4e70ce;}</style></defs><title>CloudwithRain</title><g id="Layer_2" data-name="Layer 2"><g id="Layer_1-2" data-name="Layer 1"><path class="cls-1" d="M121.74,38A47.14,47.14,0,0,0,33.66,25.42a37.74,37.74,0,0,0,4.09,75.25h81.79A31.37,31.37,0,0,0,121.74,38Z"/><path class="cls-2" d="M55.19,76.23a60.51,60.51,0,0,1-9.54,10.83c-.6.54-2.19,2.16-2.54,2.57s-.81,1-1.14,1.5a10.42,10.42,0,0,0-1.22,2.72,4.73,4.73,0,0,0-.25,1.33A9.28,9.28,0,0,0,40.38,97,12.37,12.37,0,0,0,44,105.19a10.85,10.85,0,0,0,4,2.59l.5.2a3.12,3.12,0,0,0,.43.15l.53.15a20.35,20.35,0,0,0,2.45.35h.55a4.57,4.57,0,0,0,.5,0l.59,0a11.47,11.47,0,0,0,5.85-2.23,11.8,11.8,0,0,0,1.95-1.76,11.4,11.4,0,0,0,1.79-2.64A12.46,12.46,0,0,0,64,99.67l.11-.44a7.61,7.61,0,0,0,.16-1,6,6,0,0,0,.09-1.17A9.76,9.76,0,0,0,64,94.65a21.25,21.25,0,0,0-1.28-3c-.2-.32-.43-.73-.61-1.09-.07-.14-.32-.56-.55-.93a55.47,55.47,0,0,1-4.11-7.81A36.45,36.45,0,0,1,56,77.68c-.14-.51-.54-1.83-.56-1.83A3.9,3.9,0,0,0,55.19,76.23Z"/><path class="cls-2" d="M101.19,68.23a60.51,60.51,0,0,1-9.54,10.83c-.6.54-2.19,2.16-2.54,2.57s-.81,1-1.14,1.5a10.42,10.42,0,0,0-1.22,2.72,4.73,4.73,0,0,0-.25,1.33A9.28,9.28,0,0,0,86.38,89,12.37,12.37,0,0,0,90,97.19a10.85,10.85,0,0,0,4,2.59l.5.2a3.12,3.12,0,0,0,.43.15l.53.15a20.35,20.35,0,0,0,2.45.35h.55a4.57,4.57,0,0,0,.5,0l.59,0a11.47,11.47,0,0,0,5.85-2.23,11.8,11.8,0,0,0,2-1.76,11.4,11.4,0,0,0,1.79-2.64,12.46,12.46,0,0,0,.82-2.25c0-.13.08-.33.11-.44a7.61,7.61,0,0,0,.16-1,6,6,0,0,0,.09-1.17,9.76,9.76,0,0,0-.35-2.43,21.25,21.25,0,0,0-1.28-3c-.2-.32-.43-.73-.61-1.09-.07-.14-.32-.56-.55-.93a55.47,55.47,0,0,1-4.11-7.81A36.45,36.45,0,0,1,102,69.68c-.14-.51-.54-1.83-.56-1.83A3.9,3.9,0,0,0,101.19,68.23Z"/><path class="cls-2" d="M85.13,109a55,55,0,0,1-8.68,9.86c-.54.49-2,2-2.3,2.33s-.75,1-1,1.37A9.32,9.32,0,0,0,72,125.08a4.69,4.69,0,0,0-.22,1.21,8.2,8.2,0,0,0-.11,1.65A11.24,11.24,0,0,0,75,135.4a9.91,9.91,0,0,0,3.65,2.35l.46.18a2.58,2.58,0,0,0,.39.14l.48.13a16.87,16.87,0,0,0,2.23.32h.5a3.64,3.64,0,0,0,.45,0l.54-.05a10.43,10.43,0,0,0,5.33-2,10.93,10.93,0,0,0,1.77-1.6,10.29,10.29,0,0,0,1.63-2.4,11.75,11.75,0,0,0,.74-2c0-.12.08-.3.11-.4s.08-.45.14-.89a5.49,5.49,0,0,0,.08-1.06,8.6,8.6,0,0,0-.32-2.21A18.65,18.65,0,0,0,92,123.08c-.18-.29-.39-.66-.56-1-.06-.13-.29-.51-.5-.85a50.43,50.43,0,0,1-3.73-7.1,32.53,32.53,0,0,1-1.3-3.77c-.13-.47-.49-1.67-.51-1.68A4.09,4.09,0,0,0,85.13,109Z"/><path class="cls-2" d="M40.63,120a52.51,52.51,0,0,1-8.27,9.39c-.52.47-1.9,1.87-2.2,2.23s-.7.9-1,1.3a9,9,0,0,0-1.06,2.36,4.16,4.16,0,0,0-.21,1.16,8.16,8.16,0,0,0-.11,1.57,10.69,10.69,0,0,0,3.15,7.1,9.33,9.33,0,0,0,3.48,2.24c.14.06.34.13.43.18l.38.13.45.13a18.82,18.82,0,0,0,2.13.3h.47a3.22,3.22,0,0,0,.43,0l.52-.05A9.82,9.82,0,0,0,44.3,146,9.93,9.93,0,0,0,46,144.52a10.06,10.06,0,0,0,1.55-2.29,10.93,10.93,0,0,0,.71-1.95c0-.12.08-.29.1-.39s.08-.43.14-.85a4.12,4.12,0,0,0,.07-1,8.34,8.34,0,0,0-.3-2.1,17.78,17.78,0,0,0-1.11-2.6c-.17-.28-.37-.63-.53-1-.06-.12-.27-.48-.47-.8a47.85,47.85,0,0,1-3.56-6.77,30.2,30.2,0,0,1-1.24-3.6c-.12-.44-.47-1.58-.48-1.59A2.8,2.8,0,0,0,40.63,120Z"/></g></g></svg>