<svg xmlns="http://www.w3.org/2000/svg" viewBox="0 0 151 151"><defs><style>.cls-1{fill:#76ebaf;}.cls-2{fill:#fff;}</style></defs><title>JustRightlogo</title><g id="Layer_2" data-name="Layer 2"><g id="Layer_1-2" data-name="Layer 1"><circle class="cls-1" cx="75.5" cy="75.5" r="75.5"/><path class="cls-2" d="M87.86,66.11a41.79,41.79,0,0,0-12.15-27,43.15,43.15,0,0,0-12.57,27A49,49,0,0,1,75.5,75.42,50.94,50.94,0,0,1,87.86,66.11Zm-23,9.38c-.5-.35-1.06-.67-1.59-1C63.78,74.85,64.34,75.14,64.84,75.49Zm22.74-.88c-.46.32-1,.56-1.42.92C86.62,75.17,87.12,74.93,87.58,74.61ZM75.5,86.72a42.29,42.29,0,0,0-35.42-19.3,43.11,43.11,0,0,0,28.44,40.69,38.45,38.45,0,0,0,7,1.81,46.42,46.42,0,0,0,7-1.81,43.11,43.11,0,0,0,28.44-40.69A42.29,42.29,0,0,0,75.5,86.72Z"/></g></g></svg>